<?xml version="1.0"?>
<svg xmlns="http://www.w3.org/2000/svg" id="Capa_1" enable-background="new 0 0 512 512" height="512px" viewBox="0 0 512 512" width="512px" class=""><g><path d="m424.439 155.687c-97.151-2.756-113.778-56.002-168.439-56.002s-71.288 53.246-168.439 56.002c-4.373.124-7.916 3.618-7.916 7.993v72.28c0 97.394 78.962 176.295 176.355 176.303 97.393-.007 176.355-78.909 176.355-176.303v-72.28c0-4.375-3.544-7.868-7.916-7.993z" fill="#edf4ff" data-original="#EDF4FF" class="active-path" style="fill:#C2EAEF" data-old_color="#edf4ff"/><path d="m256 284.056c-97.393-.002-176.355-26.31-176.355-58.784v10.687c0 97.394 78.962 176.295 176.355 176.303 97.393-.007 176.355-78.909 176.355-176.303v-10.687c0 32.474-78.962 58.782-176.355 58.784z" fill="#c3ddff" data-original="#C3DDFF" class="" data-old_color="#c3ddff" style="fill:#8DE4F3"/><path d="m256 251.992c-97.398 0-176.355-14.356-176.355-32.065 0 75.281 78.962 136.268 176.355 136.274 97.393-.006 176.355-60.993 176.355-136.274 0 17.709-78.957 32.065-176.355 32.065z" fill="#dbeaff" data-original="#DBEAFF" class="" data-old_color="#dbeaff" style="fill:#C3F6FF"/><path d="m472.436 156.314h-40.081c-57.76 0-86.921-20.217-112.65-38.055-19.342-13.409-37.61-26.074-63.705-26.074s-44.363 12.665-63.705 26.074c-25.729 17.837-54.891 38.055-112.65 38.055h-40.081c-21.815 0-39.564 17.749-39.564 39.565v32.064c0 27.369 10.567 53.188 29.754 72.7 18.503 18.816 42.997 29.718 69.238 30.886 32.32 52.9 90.608 88.284 157.008 88.284 66.401 0 124.689-35.385 157.009-88.286 26.22-1.167 50.694-12.049 69.195-30.842 19.214-19.516 29.796-45.35 29.796-72.742v-32.064c0-21.816-17.749-39.565-39.564-39.565zm-271.594-25.727c18.859-13.074 33.755-23.401 55.158-23.401s36.299 10.327 55.158 23.401c25.104 17.404 56.099 38.891 113.697 40.617v17.057c-5.397-.152-10.708-.456-15.847-.933-4.125-.381-7.779 2.649-8.162 6.773-.383 4.125 2.649 7.779 6.773 8.162 5.594.52 11.37.849 17.235 1.005v16.367c-1.379 2.556-12.692 10.074-50.093 16.392-32.312 5.458-74.489 8.464-118.762 8.464s-86.451-3.006-118.762-8.464c-37.401-6.318-48.714-13.835-50.093-16.392v-16.365c29.005-.76 54.908-5.964 78.957-15.87 22.355-9.208 39.353-20.994 53.011-30.464 18.511-12.836 26.487-17.686 36.888-17.686s18.377 4.85 36.888 17.686c19.617 13.603 44.032 30.531 81.569 39.797 4.02.997 8.086-1.462 9.079-5.484.993-4.021-1.462-8.086-5.484-9.079-34.855-8.604-58.011-24.66-76.617-37.561-18.752-13.003-30.107-20.359-45.435-20.359s-26.683 7.356-45.435 20.359c-25.639 17.778-60.41 41.866-123.42 43.653v-17.058c57.598-1.726 88.592-23.213 113.697-40.617zm-160.393 159.539c-16.411-16.689-25.449-38.773-25.449-62.183v-32.064c0-13.545 11.02-24.564 24.564-24.564h32.581v64.645c0 28.52 6.528 55.545 18.168 79.658-18.868-2.844-36.26-11.657-49.864-25.492zm215.551 114.688c-73.547 0-136.252-47.271-159.356-113.021 7.275 9.853 16.094 19.079 26.357 27.478 1.394 1.141 3.075 1.696 4.746 1.696 2.171 0 4.326-.938 5.809-2.75 2.623-3.206 2.151-7.931-1.054-10.554-23.623-19.333-38.668-43.378-43.583-69.109 8.644 3.971 21.625 7.896 41.039 11.426 33.738 6.134 78.501 9.512 126.043 9.512s92.305-3.378 126.043-9.512c19.414-3.53 32.395-7.456 41.039-11.426-11.872 62.21-82.27 110.148-167.083 110.148-35.453 0-69.394-8.312-98.154-24.037-3.635-1.988-8.192-.652-10.179 2.982s-.652 8.191 2.982 10.179c30.96 16.928 67.39 25.876 105.35 25.876 48.757 0 94.672-14.731 129.288-41.479 11.856-9.161 21.908-19.363 30.038-30.343-23.128 65.705-85.81 112.934-159.325 112.934zm241-176.871c0 23.429-9.051 45.526-25.486 62.22-13.6 13.815-30.977 22.615-49.827 25.455 11.64-24.113 18.168-51.138 18.168-79.659v-64.645h32.581c13.545 0 24.564 11.02 24.564 24.564z" data-original="#000000" class="" style="fill:#000000"/></g> </svg>
