<?xml version="1.0" encoding="iso-8859-1"?>
<!-- Generator: Adobe Illustrator 19.0.0, SVG Export Plug-In . SVG Version: 6.00 Build 0)  -->
<svg version="1.1" id="Capa_1" xmlns="http://www.w3.org/2000/svg" xmlns:xlink="http://www.w3.org/1999/xlink" x="0px" y="0px"
	 viewBox="0 0 512 512" style="enable-background:new 0 0 512 512;" xml:space="preserve">
<path style="fill:#FF80B0;" d="M510.866,257.134c0,62.728-22.667,120.182-60.263,164.581c-2.694,3.183-5.461,6.294-8.301,9.331
	C395.781,480.865,329.526,512,256,512c-51.14,0-98.774-15.063-138.678-41.007c-0.551-0.354-1.092-0.718-1.633-1.082
	c-16.832-11.11-32.269-24.165-45.98-38.854c-2.84-3.048-5.617-6.158-8.312-9.342C23.801,377.316,1.134,319.862,1.134,257.134
	C1.134,116.375,115.241,2.268,256,2.268S510.866,116.375,510.866,257.134z"/>
<path style="fill:#F9CEBB;" d="M442.302,431.046C395.781,480.865,329.526,512,256,512c-51.14,0-98.774-15.063-138.678-41.007
	c-17.466-11.349-33.455-24.769-47.613-39.936c22.792-25.081,50.588-45.533,81.807-59.795
	c31.822-14.543,67.201-22.647,104.485-22.647c37.273,0,72.652,8.104,104.474,22.647
	C391.693,385.524,419.489,405.976,442.302,431.046z"/>
<circle style="fill:#F4B298;" cx="454.14" cy="191.295" r="48.279"/>
<circle style="fill:#D88F7C;" cx="445.693" cy="199.337" r="31.785"/>
<circle style="fill:#EAA48C;" cx="57.855" cy="191.295" r="48.279"/>
<circle style="fill:#D88F7C;" cx="66.304" cy="199.337" r="31.785"/>
<path style="fill:#F4B298;" d="M360.474,371.263c-30.345,14.47-66.14,21.971-104.474,21.971c-16.551,0-31.52-1.404-45.616-4.161
	c-25.216-4.931-51.077,5.597-65.849,26.6c-11.173,15.895-20.909,34.142-28.847,54.24c-16.832-11.11-32.269-24.165-45.98-38.854
	c44.482-48.934,107.99-80.267,178.854-82.327c0.385-0.01,0.78-0.021,1.176-0.031c2.081-0.052,4.171-0.083,6.262-0.083
	C293.273,348.615,328.652,356.719,360.474,371.263z"/>
<path style="fill:#F9CEBB;" d="M454.303,200.917c0,109.521-88.784,170.769-198.306,170.769S57.691,310.438,57.691,200.917
	S146.476,2.612,255.997,2.612S454.303,91.396,454.303,200.917z"/>
<path style="fill:#F4B298;" d="M256.003,371.68c-109.524,0-198.312-61.251-198.312-170.763c0-108.913,87.795-197.318,196.468-198.3
	c-77.844,1.377-140.64,89.627-140.64,198.3C113.519,310.429,177.309,371.68,256.003,371.68z"/>
<g>
	<path style="fill:#39B7DD;" d="M365.757,201.414v-35.603c0-9.285-7.527-16.813-16.813-16.813l0,0
		c-9.285,0-16.813,7.527-16.813,16.813v35.603c0,9.285,7.527,16.813,16.813,16.813l0,0
		C358.229,218.227,365.757,210.699,365.757,201.414z"/>
	<path style="fill:#39B7DD;" d="M179.863,201.414v-35.603c0-9.285-7.527-16.813-16.813-16.813l0,0
		c-9.285,0-16.813,7.527-16.813,16.813v35.603c0,9.285,7.527,16.813,16.813,16.813l0,0
		C172.335,218.227,179.863,210.699,179.863,201.414z"/>
</g>
<path style="fill:#53506D;" d="M198.236,254.355c-8.753,0-15.352,8.128-13.364,16.653c7.535,32.311,36.52,56.379,71.125,56.379
	s63.59-24.069,71.125-56.379c1.988-8.525-4.611-16.653-13.364-16.653H198.236z"/>
<path style="fill:#FFFFFF;" d="M273.002,275.906L273.002,275.906c-4.761,0-8.62-3.859-8.62-8.62v-12.931h17.24v12.931
	C281.622,272.047,277.763,275.906,273.002,275.906z"/>
<g>
	<path style="fill:#F4B298;" d="M274.554,186.113H237.44c-6.612,0-11.972,5.361-11.972,11.972l0,0
		c0,6.612,5.361,11.972,11.972,11.972h37.115c6.612,0,11.972-5.361,11.972-11.972l0,0
		C286.527,191.473,281.166,186.113,274.554,186.113z"/>
	<path style="fill:#F4B298;" d="M255.997,161.158L255.997,161.158c-7.604,0-13.768,6.165-13.768,13.768v23.16h27.537v-23.16
		C269.765,167.322,263.601,161.158,255.997,161.158z"/>
</g>
<path style="fill:#BA6041;" d="M255.997,2.612c-49.682,22.471-50.491,94.044-5.983,115.258
	c64.053,30.53,87.399-52.679,87.399-52.679s-41.904,27.537-53.876,0c-11.972-27.537,36.428-52.575,64.308-40.056l-0.076-0.064
	C322.4,3.592,288.417-4.725,255.997,2.612L255.997,2.612z"/>
<path style="fill:#A04E38;" d="M273.959,117.87c5.136,2.443,10.009,4.166,14.63,5.244c-10.764,2.825-23.55,1.915-38.575-5.244
	c-44.513-21.215-43.7-92.787,5.987-115.259c11.733-2.658,23.669-3.256,35.331-1.928c-3.807,0.431-7.602,1.078-11.386,1.928
	C230.26,25.083,229.446,96.655,273.959,117.87z"/>
<g>
	<ellipse style="fill:#FCB8D2;" cx="381.03" cy="243.506" rx="27.439" ry="16.686"/>
	<path style="fill:#FCB8D2;" d="M158.401,243.508c0,9.219-12.283,16.69-27.429,16.69c-3.783,0-7.387-0.467-10.655-1.317
		c-9.865-2.514-16.786-8.452-16.786-15.373c0-5.615,4.562-10.596,11.566-13.613c4.477-1.939,9.962-3.077,15.876-3.077
		C146.117,226.819,158.401,234.29,158.401,243.508z"/>
</g>
<path style="fill:#EF9BBE;" d="M120.317,258.882c-9.865-2.514-16.786-8.452-16.786-15.373c0-5.615,4.562-10.596,11.566-13.613
	C116.246,240.072,117.994,249.735,120.317,258.882z"/>
<path style="fill:#F4B298;" d="M273.02,339.852c-11.13,3.142-22.916,3.142-34.046,0c-2.95-0.833-6.044,0.741-7.128,3.609
	c-0.015,0.037-0.028,0.075-0.043,0.112c-1.22,3.229,0.554,6.85,3.876,7.79c13.282,3.759,27.353,3.759,40.635,0
	c3.322-0.939,5.095-4.562,3.876-7.79c-0.015-0.037-0.028-0.075-0.043-0.112C279.064,340.592,275.97,339.019,273.02,339.852z"/>
<g>
</g>
<g>
</g>
<g>
</g>
<g>
</g>
<g>
</g>
<g>
</g>
<g>
</g>
<g>
</g>
<g>
</g>
<g>
</g>
<g>
</g>
<g>
</g>
<g>
</g>
<g>
</g>
<g>
</g>
</svg>
