<svg height="512pt" viewBox="-12 0 511 512" width="512pt" xmlns="http://www.w3.org/2000/svg"><path d="m478.449219 313.089844c-.023438-.023438-.066407-.042969-.085938-.085938l-32.8125-30.144531c1.109375-9.089844 1.6875-18.089844 1.6875-26.859375s-.578125-17.769531-1.6875-26.859375l32.898438-30.230469c10.855469-10.21875 13.332031-26.429687 5.972656-39.570312l-36.203125-62.59375c-7.253906-12.90625-23.019531-19.050782-37.460938-14.546875l-42.582031 13.4375c-14.441406-11.242188-30.015625-20.289063-46.402343-26.945313l-9.832032-43.710937c-3.222656-14.464844-16.300781-24.980469-31.105468-24.980469h-72.53125c-14.808594 0-27.882813 10.515625-31.105469 24.960938l-9.835938 43.730468c-16.382812 6.65625-31.957031 15.703125-46.398437 26.945313l-42.625-13.4375c-14.355469-4.460938-30.164063 1.621093-37.332032 14.417969l-36.351562 62.847656c-7.296875 13.015625-4.824219 29.226562 6.144531 39.53125l32.808594 30.144531c-1.128906 9.089844-1.707031 18.089844-1.707031 26.859375s.578125 17.769531 1.6875 26.859375l-32.898438 30.230469c-10.859375 10.21875-13.332031 26.429687-5.972656 39.550781l36.203125 62.589844c7.253906 12.929687 22.996094 19.050781 37.460937 14.570312l42.582032-13.4375c14.441406 11.242188 30.015625 20.289063 46.398437 26.945313l9.835938 43.6875c3.222656 14.488281 16.296875 25.003906 31.105469 25.003906h72.53125c14.804687 0 27.882812-10.515625 31.105468-24.960938l9.832032-43.730468c16.386718-6.65625 31.960937-15.683594 46.402343-26.945313l42.625 13.4375c14.398438 4.503907 30.164063-1.640625 37.351563-14.441406l36.355468-62.847656c7.273438-12.992188 4.796876-29.203125-6.058593-39.421875zm-233.878907 49.578125c-58.816406 0-106.667968-47.851563-106.667968-106.667969s47.851562-106.667969 106.667968-106.667969c58.816407 0 106.667969 47.851563 106.667969 106.667969s-47.851562 106.667969-106.667969 106.667969zm0 0"/></svg>